<?xml version="1.0" standalone="no"?>
<!DOCTYPE svg PUBLIC "-//W3C//DTD SVG 20010904//EN"
 "http://www.w3.org/TR/2001/REC-SVG-20010904/DTD/svg10.dtd">
<svg version="1.0" xmlns="http://www.w3.org/2000/svg"
 width="794.000000pt" height="709.000000pt" viewBox="0 0 794.000000 709.000000"
 preserveAspectRatio="xMidYMid meet">

<g transform="translate(0.000000,709.000000) scale(0.100000,-0.100000)"
fill="#000000" stroke="none">
<path d="M3126 5864 l-8 -29 -12 23 -12 22 -23 -30 c-15 -21 -28 -29 -40 -25
-10 3 -24 -1 -31 -10 -19 -22 -34 -18 -59 16 -17 22 -26 28 -34 20 -6 -6 -21
-11 -33 -11 -12 0 -24 -6 -27 -12 -3 -9 -10 -8 -26 6 -23 21 -23 21 -40 -11
-10 -20 -19 -23 -77 -23 -53 0 -72 5 -102 25 -35 24 -37 24 -40 6 -2 -10 4
-36 13 -57 8 -20 13 -40 10 -43 -7 -7 -80 -4 -106 4 -17 6 -19 3 -13 -19 5
-21 3 -24 -15 -19 -26 7 -27 -4 -3 -30 16 -19 16 -20 -8 -14 -176 41 -225 31
-289 -58 -18 -25 -58 -63 -89 -84 -31 -21 -65 -48 -76 -60 -29 -32 -118 -61
-189 -61 -37 0 -107 12 -172 29 -113 30 -205 47 -205 38 0 -3 42 -25 93 -50
67 -33 106 -60 141 -97 26 -28 45 -54 42 -57 -3 -3 -19 0 -37 7 -44 18 -136
16 -186 -5 -54 -22 -55 -32 -3 -27 45 5 123 -12 151 -31 14 -10 -20 -13 -174
-12 -186 0 -193 -1 -237 -25 l-45 -25 95 -3 c52 -1 102 -5 110 -8 8 -3 -21
-20 -69 -39 -84 -35 -111 -51 -111 -66 0 -5 21 -6 47 -3 56 7 50 0 -38 -46
-54 -28 -69 -44 -69 -76 0 -10 6 -11 25 -4 30 11 31 7 8 -31 -21 -36 -12 -46
21 -23 31 20 42 14 27 -14 -25 -47 -4 -54 60 -21 51 25 61 18 26 -19 -35 -37
-34 -43 5 -31 50 14 52 11 18 -17 -38 -33 -33 -40 14 -20 33 14 37 14 43 -1 9
-24 -13 -150 -42 -239 -14 -43 -24 -81 -23 -85 2 -4 30 1 62 12 70 24 98 19
115 -18 7 -16 56 -103 109 -195 132 -229 132 -228 132 -269 0 -20 -9 -78 -20
-130 -27 -127 -26 -129 18 -86 67 65 70 55 46 -117 l-7 -50 34 22 c19 12 52
31 73 43 36 19 38 20 34 2 -16 -54 -18 -52 54 -38 48 9 55 -4 68 -132 6 -54
11 -102 12 -108 1 -5 -2 -17 -6 -27 -4 -9 0 -30 9 -48 13 -25 14 -35 4 -46
-20 -24 -56 -17 -79 16 -33 46 -43 38 -38 -29 3 -42 12 -71 31 -100 15 -22 27
-43 27 -45 0 -3 -10 -14 -22 -26 -31 -28 -86 -26 -128 5 -51 38 -62 34 -45
-16 18 -49 18 -49 5 -49 -6 0 -22 11 -35 25 -28 31 -31 26 -43 -50 -14 -89 2
-141 67 -208 36 -38 36 -38 9 -32 -33 8 -35 -2 -12 -46 8 -17 14 -33 11 -35
-2 -2 -35 0 -73 6 -304 44 -570 -44 -784 -259 -41 -42 -102 -98 -134 -125 -65
-55 -143 -167 -177 -254 -15 -41 -23 -87 -27 -163 -4 -93 -2 -110 17 -147 12
-23 44 -60 72 -82 l50 -40 -168 -2 -168 -3 -3 -104 c-1 -57 1 -108 6 -113 5
-5 637 -9 1464 -9 l1456 1 47 -84 c112 -199 222 -268 455 -282 122 -8 237 13
321 57 75 40 192 148 261 241 l52 69 1025 -1 c564 -1 1241 -1 1504 -1 l477 1
0 115 0 115 -131 0 -132 0 46 35 c26 20 58 56 73 81 25 42 26 50 22 147 -7
165 -66 289 -192 407 -38 36 -104 99 -145 141 -160 161 -352 253 -561 266
l-87 6 36 70 c31 60 36 81 39 151 l3 81 -23 -27 c-13 -15 -40 -34 -60 -43
l-37 -15 5 38 5 37 -32 -38 c-30 -35 -86 -73 -95 -64 -2 2 10 30 28 62 26 49
31 69 33 137 1 44 -1 94 -4 111 l-7 32 -19 -48 c-19 -51 -73 -142 -80 -135 -2
2 3 30 11 63 18 67 10 114 -32 196 -25 51 -44 63 -44 30 0 -25 -17 -36 -34
-22 -16 13 -43 106 -56 191 -7 47 -16 71 -35 90 l-26 25 7 -57 c6 -48 4 -58
-8 -58 -27 0 -145 296 -126 316 3 2 35 -3 72 -13 64 -15 68 -18 91 -62 30 -60
58 -85 85 -76 15 5 30 -2 56 -24 33 -30 74 -41 74 -22 0 5 -5 22 -10 37 -6 15
-8 29 -6 31 3 3 26 -15 53 -40 53 -48 89 -71 96 -60 3 5 -1 40 -9 78 -7 39
-11 83 -8 99 l6 28 44 -43 c24 -24 44 -39 44 -34 0 6 -10 60 -21 122 -24 127
-21 161 20 224 51 78 211 362 211 374 0 7 9 15 19 18 25 6 46 78 61 202 6 50
15 94 21 100 6 6 19 5 37 -2 64 -25 67 -24 28 12 l-39 38 29 -7 c16 -4 38 -10
49 -13 15 -4 12 3 -14 31 -19 20 -33 38 -30 40 2 3 24 -4 48 -15 68 -30 85
-24 60 23 -15 28 -4 34 25 14 38 -24 49 -20 31 14 -20 38 -19 43 5 35 15 -5
20 -2 20 12 0 31 -21 51 -82 77 -76 34 -86 51 -25 43 29 -4 47 -3 47 3 0 16
-58 48 -128 71 -35 12 -60 24 -57 28 4 3 52 8 108 11 l102 5 -45 25 c-44 24
-51 25 -232 24 -104 0 -188 1 -188 3 0 1 13 9 30 18 18 9 56 15 105 15 78 0
91 11 37 31 -58 22 -114 27 -170 14 -31 -8 -59 -12 -61 -10 -7 7 48 73 83 100
18 13 67 41 109 60 42 20 77 38 77 41 0 10 -95 -8 -204 -38 -133 -37 -241 -37
-316 2 -70 35 -166 116 -216 181 -34 45 -54 61 -86 71 -41 12 -45 12 -235 -29
-26 -6 -31 12 -9 36 7 9 17 27 21 40 l7 24 -45 -26 c-27 -16 -61 -27 -82 -27
l-36 0 22 31 c23 33 51 114 42 123 -8 8 -39 -11 -100 -60 -29 -24 -66 -46 -81
-50 -15 -3 -32 -7 -39 -9 -20 -6 -22 6 -7 41 21 49 -3 93 -34 62 -8 -8 -15 -8
-27 2 -12 10 -19 10 -27 2 -17 -17 -25 -15 -31 9 -8 28 -21 18 -53 -42 -29
-52 -44 -51 -44 4 0 38 -12 34 -39 -13 -12 -22 -25 -40 -28 -40 -2 0 -2 18 2
39 11 66 -29 110 -46 50 -6 -21 -7 -21 -8 9 -1 43 -17 41 -31 -5 -24 -79 -42
-123 -51 -123 -5 0 -9 9 -9 19 0 11 -11 33 -25 48 -21 24 -26 26 -35 13 -5 -8
-10 -23 -10 -32 0 -25 -12 -22 -44 7 -23 21 -56 34 -56 21 0 -2 9 -24 21 -50
25 -58 21 -74 -13 -47 -14 12 -29 21 -32 21 -3 0 6 -29 19 -65 31 -81 32 -134
5 -163 -30 -32 -58 -35 -172 -22 -111 12 -166 7 -321 -30 -109 -26 -137 -25
-278 11 -131 34 -210 36 -354 9 -87 -16 -109 -11 -174 40 -61 48 -63 65 -27
170 14 39 22 70 19 70 -4 0 -17 -10 -30 -22 -13 -12 -26 -18 -29 -15 -6 5 10
54 34 109 8 18 -29 6 -56 -17 -37 -31 -42 -31 -42 0 0 13 -6 28 -14 32 -8 4
-22 26 -32 48 l-18 40 -4 -37 c-2 -21 -7 -38 -12 -38 -4 0 -21 17 -38 37 l-29
36 -7 -29z m-652 -346 c-84 -63 -175 -171 -222 -263 -57 -114 -153 -497 -123
-495 3 1 28 32 55 70 27 39 51 68 53 66 5 -5 -19 -99 -69 -266 -44 -150 -110
-318 -159 -407 -56 -101 -151 -254 -156 -250 -2 2 35 96 83 208 147 348 150
357 159 584 14 367 118 601 328 736 64 42 99 53 51 17z m3254 -81 c105 -79
194 -229 232 -392 22 -94 40 -271 40 -399 0 -68 7 -100 44 -210 25 -72 78
-209 120 -305 41 -95 68 -167 61 -160 -27 28 -156 250 -190 329 -61 137 -194
564 -181 577 2 2 24 -25 50 -61 25 -36 51 -68 57 -71 25 -16 -30 247 -83 390
-49 133 -93 202 -192 300 -94 93 -81 93 42 2z m-1752 -72 c138 -41 164 -42
242 -14 110 40 147 49 200 49 28 0 52 -3 52 -6 0 -3 -15 -25 -32 -47 -22 -27
-27 -39 -15 -34 9 4 24 10 33 14 13 5 15 3 6 -13 -6 -11 -20 -28 -31 -38 -29
-26 -26 -36 9 -36 l30 0 -31 -55 c-32 -58 -27 -68 21 -40 41 24 42 17 2 -24
-58 -61 -103 -144 -133 -248 -32 -111 -46 -203 -31 -203 5 0 12 7 16 15 12 31
24 14 16 -22 -5 -21 -11 -72 -15 -113 -6 -68 -6 -73 8 -55 9 11 18 18 21 15 3
-3 -2 -48 -10 -99 -8 -51 -12 -96 -9 -100 4 -3 18 7 31 23 14 15 27 27 29 25
2 -2 -1 -24 -5 -49 -19 -95 -4 -130 41 -101 22 13 23 7 10 -50 -6 -25 -4 -46
5 -67 20 -48 273 -443 304 -476 25 -26 38 -30 138 -41 84 -10 124 -20 174 -43
59 -29 148 -104 148 -125 0 -8 -45 16 -101 55 -58 40 -155 78 -197 78 l-42 0
20 -40 c30 -59 24 -81 -8 -29 -34 53 -61 77 -70 63 -4 -6 -15 -13 -25 -17 -10
-4 -15 -12 -11 -18 4 -6 10 -95 15 -198 4 -102 11 -201 15 -218 6 -32 8 -33
58 -34 28 -1 62 -5 76 -9 18 -5 6 -7 -38 -7 -77 1 -87 -7 -72 -62 9 -35 18
-44 58 -63 101 -47 200 -183 208 -286 4 -47 4 -47 -19 23 -43 130 -85 187
-166 225 -28 13 -52 22 -54 19 -2 -2 -1 -46 1 -96 l4 -93 63 -45 c112 -79 197
-228 194 -340 0 -17 -9 6 -19 51 -10 45 -28 101 -41 125 -26 51 -110 136 -162
164 -33 17 -39 18 -47 5 -19 -29 -9 -52 51 -122 127 -147 159 -223 159 -372 0
-95 -8 -166 -19 -166 -3 0 -4 55 -3 123 4 142 -9 196 -76 293 -38 58 -123 144
-140 144 -5 0 -39 -43 -76 -95 -37 -52 -72 -95 -77 -95 -15 0 -47 -73 -54
-125 -23 -156 -128 -350 -171 -314 -19 16 -17 53 5 97 19 37 41 160 41 228 0
28 -4 35 -27 40 -52 13 -128 52 -198 99 -38 26 -99 61 -135 77 -36 16 -79 43
-96 59 l-31 30 -34 -20 c-19 -12 -117 -49 -219 -82 -183 -61 -186 -61 -273
-56 -92 6 -104 -3 -42 -29 40 -16 49 -56 34 -158 -17 -120 -36 -176 -61 -176
-16 0 -38 67 -38 114 0 71 -24 145 -83 257 -31 57 -70 141 -87 186 l-31 83
-27 -14 c-54 -28 -86 -80 -137 -219 -23 -64 -29 -55 -9 14 25 84 62 150 114
204 47 47 49 52 43 93 -4 28 -11 42 -21 42 -27 0 -81 -41 -116 -88 -34 -47
-98 -167 -111 -210 -4 -13 -9 -22 -11 -19 -6 6 30 106 61 167 44 88 92 146
148 181 29 18 47 34 40 36 -24 8 -116 -50 -189 -119 -41 -39 -72 -65 -68 -57
8 20 140 135 194 170 64 41 70 47 70 71 0 19 -4 20 -45 15 -68 -10 -288 -84
-363 -123 -37 -19 -91 -58 -119 -87 -50 -48 -74 -58 -35 -14 21 25 9 19 -72
-37 -129 -90 -112 -70 29 34 151 112 200 150 280 215 95 78 174 127 270 166
39 15 73 34 77 41 4 7 21 72 38 143 18 72 48 165 68 208 32 71 34 79 20 94
-25 24 -95 33 -166 21 -35 -5 -66 -8 -69 -4 -15 15 62 30 162 32 61 1 115 2
121 3 6 1 40 38 75 84 35 45 111 130 169 188 96 97 111 108 170 127 78 25 194
42 298 43 63 0 72 2 52 11 -25 10 -211 5 -297 -8 l-42 -6 26 48 c23 46 24 56
20 152 l-5 104 25 -7 c25 -6 26 -5 19 34 -5 32 -3 41 9 41 36 0 50 86 35 216
-6 53 -13 109 -17 123 -6 25 -5 25 14 9 29 -26 33 -23 33 27 0 26 6 58 14 73
7 15 16 46 20 68 5 38 2 47 -37 100 -24 33 -51 65 -60 73 -21 17 -22 35 -2 27
33 -12 44 3 38 57 -4 37 -14 63 -36 91 -21 26 -25 37 -14 33 9 -3 24 -4 34 0
14 5 12 10 -13 30 -38 30 -29 29 112 -12z m-778 -120 c-40 -36 -126 -108 -190
-161 -65 -52 -132 -112 -149 -132 -29 -35 -75 -136 -120 -261 -10 -30 -32 -75
-48 -100 -16 -25 -36 -70 -46 -99 -9 -29 -19 -51 -22 -49 -10 11 31 136 67
201 21 39 59 122 84 183 24 62 54 126 65 142 12 16 58 55 104 87 45 32 111 85
147 119 71 68 156 135 171 135 5 0 -23 -29 -63 -65z m1827 -15 c105 -71 164
-134 227 -246 78 -135 107 -210 129 -331 10 -56 30 -125 44 -153 14 -27 23
-50 21 -50 -2 0 -20 22 -39 48 -27 36 -39 65 -47 117 -13 72 -72 221 -143 359
-46 90 -129 180 -249 270 -43 32 -78 60 -78 62 0 8 65 -29 135 -76z m-1475
-204 c41 -54 49 -48 21 17 l-20 47 20 -13 c31 -19 90 -114 110 -176 22 -72 34
-49 26 52 l-5 72 21 -60 c32 -91 31 -284 -2 -380 -31 -93 -95 -223 -127 -260
-29 -34 -29 -33 14 56 44 91 64 179 66 280 1 81 -1 90 -29 130 -36 51 -52 58
-64 27 -5 -13 -13 -34 -18 -48 -10 -24 -11 -23 -37 28 -17 33 -43 64 -74 87
-56 41 -72 43 -72 10 0 -30 -9 -31 -52 -5 -47 29 -67 26 -74 -10 -4 -16 -9
-30 -13 -30 -3 0 -24 11 -46 25 -34 21 -37 24 -17 25 31 0 66 34 58 55 -5 15
-1 16 34 10 44 -7 52 3 19 23 -31 20 -17 24 35 11 51 -13 66 -8 46 16 -16 19
-1 19 24 0 34 -25 37 -17 11 25 -14 22 -23 40 -19 40 13 0 71 -45 101 -79 17
-19 35 -33 38 -29 10 9 -23 80 -53 112 l-27 30 35 -21 c19 -12 51 -42 70 -67z
m1091 -27 c-4 -60 -7 -61 76 13 24 21 47 38 53 38 13 0 13 -31 0 -66 -14 -35
-7 -41 24 -20 34 22 56 20 56 -4 0 -23 24 -26 78 -11 39 11 41 1 7 -35 -32
-35 -32 -44 3 -44 46 0 59 -14 45 -49 -13 -36 -10 -41 36 -42 35 -1 35 -1 -29
-31 -58 -28 -62 -32 -40 -38 14 -3 25 -12 25 -20 0 -10 -25 -18 -84 -27 -46
-7 -86 -11 -89 -9 -6 7 84 119 108 134 30 18 25 36 -9 29 -15 -3 -33 -1 -38 4
-7 7 -20 6 -41 -5 -39 -20 -42 -20 -42 4 0 24 -32 26 -70 5 -39 -22 -42 -18
-20 26 12 23 19 43 17 45 -4 4 -54 -31 -116 -80 -11 -9 -12 -5 -7 24 l6 35
-17 -25 c-10 -13 -28 -36 -41 -50 l-24 -25 6 38 c2 20 3 37 0 37 -2 0 -16 -27
-31 -60 -14 -33 -28 -59 -30 -56 -8 8 19 91 59 184 32 73 48 98 77 118 20 13
40 23 46 21 6 -2 8 -27 6 -58z m-1447 -188 c48 -27 46 -45 -3 -38 -22 3 -41 3
-41 0 0 -3 9 -16 20 -30 27 -35 17 -41 -18 -11 -16 13 -43 30 -61 37 -40 17
-40 29 2 33 24 2 32 8 31 21 -2 20 20 17 70 -12z m-119 -116 c17 -9 45 -30 61
-47 l29 -30 -35 6 c-38 8 -60 9 -105 4 -22 -2 -30 -8 -30 -23 0 -21 -5 -22
-92 -9 -24 3 -43 10 -43 14 0 10 26 20 52 20 11 0 31 9 45 20 14 11 32 20 41
20 9 0 13 7 9 20 -6 25 21 27 68 5z m150 -190 c47 -24 75 -68 91 -145 7 -30
15 -63 19 -72 4 -11 3 -18 -4 -18 -11 0 -14 4 -71 102 -18 31 -47 67 -64 79
-40 30 -111 36 -172 15 -61 -21 -87 -42 -120 -98 -16 -27 -23 -34 -19 -18 14
51 53 97 109 126 31 16 56 35 56 43 0 20 125 10 175 -14z m1793 16 c9 -5 -7
-10 -44 -14 -87 -9 -86 -21 4 -51 97 -33 147 -73 191 -156 18 -34 31 -63 29
-65 -2 -3 -27 26 -54 63 -72 96 -121 127 -198 127 -74 0 -109 -22 -158 -97
-31 -48 -33 -49 -36 -24 -4 29 -17 34 -26 10 -13 -35 -15 -5 -3 43 18 67 76
137 130 157 46 16 144 20 165 7z m-1803 -174 c9 -13 15 -44 15 -78 0 -50 -4
-61 -30 -87 -66 -67 -230 -39 -230 38 0 39 15 38 69 -5 53 -42 92 -45 127 -10
19 19 24 34 22 58 -3 29 -6 32 -40 35 -25 2 -43 11 -53 25 -21 30 -19 36 17
51 38 16 81 5 103 -27z m1725 -35 c21 -17 22 -21 8 -48 -13 -27 -17 -29 -66
-27 -52 2 -52 2 -52 -28 0 -46 39 -79 94 -79 40 0 49 4 73 35 46 57 89 39 62
-26 -25 -61 -114 -88 -178 -55 -15 8 -42 31 -60 51 -25 29 -31 44 -31 81 0 39
5 51 34 80 39 39 81 45 116 16z m-1983 -175 c81 -34 129 -31 296 20 91 27 119
25 77 -7 l-25 -20 29 0 c28 0 28 -1 13 -18 -25 -27 -21 -34 13 -27 17 4 30 5
30 2 0 -14 -162 -113 -226 -137 l-26 -10 21 26 c27 34 22 39 -23 24 -20 -6
-43 -10 -52 -8 -14 2 -13 8 9 34 l26 31 -64 6 c-115 11 -185 64 -185 141 l0
41 25 -41 c15 -26 38 -46 62 -57z m2218 -9 c-19 -70 -58 -96 -153 -104 -87 -8
-102 -12 -102 -33 0 -10 9 -26 20 -36 49 -45 0 -48 -53 -4 -38 31 -62 34 -37
4 10 -12 10 -15 -2 -15 -9 0 -36 23 -62 50 -70 75 -104 170 -38 107 36 -35 51
-34 44 1 -5 26 -4 26 14 10 35 -31 108 -58 159 -58 75 0 120 17 162 59 45 45
57 49 48 19z m-3474 -1594 c195 -33 389 -117 486 -211 75 -73 123 -177 123
-267 0 -35 7 -95 16 -132 17 -76 12 -155 -13 -175 -20 -17 -41 -61 -52 -106
-8 -34 -9 -35 -10 -9 l-1 28 -36 -27 c-64 -49 -184 -84 -184 -54 0 7 8 18 18
26 15 12 8 13 -54 8 -45 -4 -80 -3 -92 4 -26 14 -62 109 -62 161 0 33 3 40 20
40 24 0 25 7 5 53 -19 46 -19 110 0 172 8 27 13 50 12 52 -6 6 -72 -106 -90
-152 -11 -29 -21 -88 -24 -144 -5 -76 -10 -96 -26 -112 -18 -16 -19 -19 -4
-19 9 0 17 -3 17 -6 0 -16 -91 -70 -143 -85 -29 -8 -29 -8 -11 13 l19 21 -86
-8 c-136 -11 -170 15 -173 134 -1 61 1 66 21 69 l22 3 -25 52 c-33 73 -29 147
15 238 24 49 13 50 -29 2 -40 -45 -62 -94 -99 -218 -24 -80 -27 -96 -15 -106
22 -18 17 -63 -9 -87 -56 -52 -126 -47 -189 15 -32 31 -40 35 -48 23 -5 -8
-10 -25 -10 -37 0 -13 -4 -23 -8 -23 -18 0 -72 68 -87 110 -27 74 -6 196 47
272 23 34 23 41 -3 28 -33 -18 -99 -81 -131 -124 -30 -42 -37 -66 -13 -46 12
10 15 9 15 -6 0 -34 -33 -134 -44 -134 -39 0 -86 67 -86 122 1 91 98 248 213
344 45 38 115 100 157 137 169 154 382 206 651 161z m4945 -12 c97 -31 176
-78 266 -159 46 -42 115 -102 155 -135 140 -116 233 -311 189 -396 -15 -29
-51 -62 -69 -62 -11 0 -33 57 -42 110 -7 40 -6 43 9 31 20 -17 20 -8 2 27 -24
46 -166 171 -166 146 0 -3 9 -18 19 -33 27 -37 61 -143 61 -188 0 -61 -19
-112 -57 -154 -40 -45 -53 -49 -53 -16 0 12 -5 29 -10 37 -8 12 -16 9 -46 -22
-43 -45 -99 -63 -141 -47 -63 24 -92 79 -58 112 13 13 10 28 -21 129 -20 62
-43 127 -51 143 -16 32 -72 95 -84 95 -5 0 4 -26 19 -57 35 -76 37 -169 5
-230 l-22 -42 22 -3 c21 -3 22 -8 20 -77 -2 -65 -5 -78 -28 -100 -25 -25 -30
-26 -127 -23 -101 2 -101 2 -83 -17 17 -20 17 -20 -12 -12 -72 21 -154 78
-131 92 8 5 7 11 -4 22 -10 11 -17 45 -21 109 -3 51 -11 109 -17 129 -8 30
-99 184 -100 169 0 -3 7 -27 15 -54 19 -63 19 -122 0 -176 -19 -53 -19 -50 5
-50 17 0 20 -7 20 -40 0 -52 -36 -147 -62 -161 -12 -7 -47 -8 -92 -5 -53 5
-67 4 -53 -4 26 -16 21 -40 -8 -40 -36 0 -117 33 -159 65 l-36 27 0 -26 c0
-66 -63 49 -80 145 -9 52 -8 78 4 139 9 41 16 103 16 138 0 69 34 160 86 228
52 68 165 139 303 191 62 23 83 28 231 59 92 19 306 11 386 -14z m-2986 -327
c56 -50 60 -51 119 -30 36 12 47 13 74 1 60 -25 61 -26 53 -249 -4 -117 -3
-196 2 -187 14 22 35 225 27 250 -4 12 -4 51 0 86 6 57 9 65 31 70 35 9 69 -2
106 -35 42 -36 84 -57 131 -66 36 -7 40 -5 81 40 50 54 48 56 65 -65 24 -168
19 -186 -34 -130 -16 16 -31 28 -33 25 -8 -8 49 -68 119 -125 86 -70 129 -128
140 -187 8 -39 5 -54 -15 -97 -63 -136 -278 -383 -387 -444 -90 -51 -164 -65
-309 -59 -175 6 -203 18 -316 131 -97 97 -118 133 -198 332 -37 95 -46 166
-26 218 15 41 89 115 167 168 51 34 79 61 94 89 27 54 20 58 -20 9 -17 -22
-46 -47 -63 -56 l-31 -16 7 43 c3 24 15 76 26 114 11 39 25 90 31 114 11 46
60 101 91 101 9 0 40 -20 68 -45z"/>
<path d="M3745 3681 c-94 -16 -227 -118 -269 -204 -59 -120 -56 -292 5 -358
l30 -32 97 7 97 6 -52 -48 c-62 -58 -66 -78 -24 -145 52 -81 190 -161 303
-174 118 -14 378 131 378 210 0 29 -30 57 -95 90 -27 14 -56 35 -63 46 -15 25
-10 26 31 4 18 -9 59 -21 92 -25 33 -5 76 -11 95 -14 44 -7 81 20 112 79 32
62 36 193 9 271 -44 124 -144 216 -290 264 -68 23 -95 26 -246 28 -93 1 -188
-1 -210 -5z m322 -132 c71 -12 116 -40 96 -59 -20 -22 -96 -29 -262 -25 -156
3 -191 10 -176 34 29 48 206 74 342 50z m-287 -219 c61 -31 78 -84 44 -135
-19 -29 -39 -34 -24 -6 5 11 10 38 10 60 0 31 -5 44 -22 55 -44 28 -124 24
-172 -9 -28 -19 -36 -21 -36 -9 0 8 11 26 25 39 32 33 117 35 175 5z m495 -34
c18 -8 38 -24 45 -35 13 -26 13 -26 -45 -1 -70 30 -92 26 -138 -22 -33 -36
-38 -39 -32 -18 23 81 88 110 170 76z"/>
<path d="M3073 3061 c-44 -15 -105 -43 -134 -61 -67 -40 -190 -132 -185 -138
2 -2 46 14 98 36 52 21 139 52 195 67 l101 28 7 45 c4 24 5 45 3 47 -2 3 -40
-8 -85 -24z"/>
<path d="M3886 1533 c-5 -17 -26 -274 -26 -318 1 -17 2 -18 10 -4 9 15 32 330
25 337 -2 2 -6 -5 -9 -15z"/>
<path d="M435 182 c-55 -1 -103 -6 -108 -11 -4 -4 256 -8 579 -8 589 -1 818
-8 808 -24 -6 -11 213 -10 240 1 15 6 0 9 -49 11 l-70 2 80 7 c44 4 207 8 363
9 246 1 282 -1 282 -14 0 -11 11 -15 38 -15 20 0 44 -5 52 -10 11 -7 0 -10
-37 -10 -29 0 -53 4 -53 8 0 12 -192 22 -262 15 -34 -3 -55 -10 -55 -18 0 -9
44 -15 173 -20 170 -7 274 -1 274 15 0 5 8 11 18 13 16 4 16 5 0 6 -20 1 -25
21 -5 22 6 0 49 0 95 -1 52 -1 82 3 82 9 0 7 -37 11 -102 11 -1160 4 -2265 4
-2343 2z"/>
<path d="M18 173 c12 -2 32 -2 45 0 12 2 2 4 -23 4 -25 0 -35 -2 -22 -4z"/>
<path d="M2890 169 c0 -14 73 -17 285 -14 277 4 265 3 265 16 0 6 -91 9 -275
7 -151 -2 -275 -6 -275 -9z"/>
<path d="M3520 165 c0 -22 282 -22 300 0 11 13 -6 15 -144 15 -132 0 -156 -2
-156 -15z"/>
<path d="M3840 171 c0 -3 78 -8 172 -10 95 -1 171 0 168 2 -8 8 -340 16 -340
8z"/>
<path d="M1377 130 c-48 -4 -90 -9 -92 -12 -9 -9 299 -16 350 -8 43 6 35 8
-52 9 -61 0 -103 5 -103 11 0 6 -3 9 -7 9 -5 -1 -47 -5 -96 -9z"/>
<path d="M7818 133 c23 -2 61 -2 85 0 23 2 4 4 -43 4 -47 0 -66 -2 -42 -4z"/>
<path d="M480 120 c-91 -4 -214 -8 -275 -10 -69 -2 -97 -5 -75 -9 19 -4 199
-5 400 -4 201 1 399 -2 440 -6 l75 -8 -65 -2 c-36 -1 -256 -2 -490 -3 -234 0
-440 -2 -457 -5 -30 -5 -33 -9 -33 -39 l0 -34 3970 0 3970 1 0 34 0 35 -192
-1 c-230 0 -6652 9 -6656 10 -2 1 0 6 3 11 3 6 21 10 39 10 18 0 41 6 52 14
17 13 15 14 -21 6 -41 -9 -282 -8 -435 2 -47 3 -159 2 -250 -2z"/>
<path d="M0 110 c0 -6 7 -10 15 -10 8 0 15 2 15 4 0 2 -7 6 -15 10 -8 3 -15 1
-15 -4z"/>
<path d="M1710 108 c0 -4 84 -7 188 -7 103 1 178 3 167 5 -46 7 -355 9 -355 2z"/>
</g>
</svg>
